<svg width="19" height="19" viewBox="0 0 19 19" fill="none" xmlns="http://www.w3.org/2000/svg">
<path d="M16.6484 7.9427C11.6909 7.2617 7.41587 10.9427 7.70312 15.8252M5.82812 6.4502C5.82813 6.84802 5.98616 7.22955 6.26746 7.51086C6.54877 7.79216 6.9303 7.9502 7.32812 7.9502C7.72595 7.9502 8.10748 7.79216 8.38878 7.51086C8.67009 7.22955 8.82812 6.84802 8.82812 6.4502C8.82812 6.05237 8.67009 5.67084 8.38878 5.38954C8.10748 5.10823 7.72595 4.9502 7.32812 4.9502C6.9303 4.9502 6.54877 5.10823 6.26746 5.38954C5.98616 5.67084 5.82813 6.05237 5.82812 6.4502Z" stroke="white" stroke-width="1.25" stroke-linecap="round" stroke-linejoin="round"/>
<path d="M3.20312 10.2497C5.28812 9.96095 7.15937 10.9682 8.17112 12.5747" stroke="white" stroke-width="1.25" stroke-linecap="round" stroke-linejoin="round"/>
<path d="M3.20312 7.5002C3.20312 5.8202 3.20313 4.9802 3.53013 4.3382C3.81774 3.77373 4.27666 3.31481 4.84113 3.0272C5.48313 2.7002 6.32312 2.7002 8.00312 2.7002H11.9031C13.5831 2.7002 14.4231 2.7002 15.0651 3.0272C15.6296 3.31481 16.0885 3.77373 16.3761 4.3382C16.7031 4.9802 16.7031 5.8202 16.7031 7.5002V11.4002C16.7031 13.0802 16.7031 13.9202 16.3761 14.5622C16.0885 15.1267 15.6296 15.5856 15.0651 15.8732C14.4231 16.2002 13.5831 16.2002 11.9031 16.2002H8.00312C6.32312 16.2002 5.48313 16.2002 4.84113 15.8732C4.27666 15.5856 3.81774 15.1267 3.53013 14.5622C3.20313 13.9202 3.20312 13.0802 3.20312 11.4002V7.5002Z" stroke="white" stroke-width="1.25" stroke-linecap="round" stroke-linejoin="round"/>
</svg>
