<svg width="25" height="25" viewBox="0 0 25 25" fill="none" xmlns="http://www.w3.org/2000/svg">
<path fill-rule="evenodd" clip-rule="evenodd" d="M12.6953 1.52075C6.75825 1.52075 1.94531 6.33369 1.94531 12.2708C1.94531 18.2079 6.75825 23.0208 12.6953 23.0208C18.6324 23.0208 23.4453 18.2079 23.4453 12.2708C23.4453 6.33369 18.6324 1.52075 12.6953 1.52075ZM8.22575 12.2405C7.93286 11.9476 7.45799 11.9476 7.16509 12.2405C6.8722 12.5334 6.8722 13.0082 7.16509 13.3011L10.1651 16.3011C10.458 16.594 10.9329 16.594 11.2257 16.3011L18.2257 9.30108C18.5186 9.00819 18.5186 8.53331 18.2257 8.24042C17.9328 7.94753 17.458 7.94753 17.1651 8.24042L10.6954 14.7101L8.22575 12.2405Z" fill="#E2311F"/>
</svg>
