<svg width="33" height="33" viewBox="0 0 33 33" fill="none" xmlns="http://www.w3.org/2000/svg">
<path d="M15.1511 28.6913L20.6471 19.1633M6.83505 9.63525L12.3431 19.1633M27.4991 11.9633H16.4951M16.4951 11.9633C17.7681 11.9633 18.989 12.469 19.8892 13.3691C20.7893 14.2693 21.2951 15.4902 21.2951 16.7633C21.2951 18.0363 20.7893 19.2572 19.8892 20.1574C18.989 21.0575 17.7681 21.5633 16.4951 21.5633C15.222 21.5633 14.0011 21.0575 13.1009 20.1574C12.2008 19.2572 11.6951 18.0363 11.6951 16.7633C11.6951 15.4902 12.2008 14.2693 13.1009 13.3691C14.0011 12.469 15.222 11.9633 16.4951 11.9633Z" stroke="#E2311F" stroke-width="1.5" stroke-linecap="round" stroke-linejoin="round"/>
<path d="M16.4951 28.7632C18.0709 28.7632 19.6314 28.4528 21.0873 27.8497C22.5432 27.2467 23.866 26.3628 24.9803 25.2485C26.0946 24.1342 26.9786 22.8113 27.5816 21.3554C28.1847 19.8995 28.4951 18.339 28.4951 16.7632C28.4951 15.1873 28.1847 13.6269 27.5816 12.171C26.9786 10.7151 26.0946 9.39221 24.9803 8.2779C23.866 7.1636 22.5432 6.27969 21.0873 5.67663C19.6314 5.07357 18.0709 4.76318 16.4951 4.76318C13.3125 4.76318 10.2602 6.02747 8.00977 8.2779C5.75934 10.5283 4.49506 13.5806 4.49506 16.7632C4.49506 19.9458 5.75934 22.998 8.00977 25.2485C10.2602 27.4989 13.3125 28.7632 16.4951 28.7632Z" stroke="#E2311F" stroke-width="1.5" stroke-linecap="round" stroke-linejoin="round"/>
</svg>
