<svg width="25" height="25" viewBox="0 0 25 25" fill="none" xmlns="http://www.w3.org/2000/svg">
<path d="M21.2196 13.2008C21.3906 12.7878 21.3906 12.2628 21.3906 11.2148C21.3906 10.1668 21.3906 9.64184 21.2196 9.22884C21.1066 8.95578 20.9408 8.70766 20.7318 8.49867C20.5228 8.28968 20.2747 8.12392 20.0016 8.01084C19.5886 7.83984 19.0636 7.83984 18.0156 7.83984H11.4906C10.2306 7.83984 9.60063 7.83984 9.11963 8.08484C8.69589 8.30062 8.3514 8.6451 8.13562 9.06884C7.89062 9.54884 7.89062 10.1788 7.89062 11.4398V17.9648C7.89062 19.0128 7.89062 19.5378 8.06163 19.9508C8.29063 20.5018 8.72862 20.9408 9.27962 21.1688C9.69262 21.3398 10.2176 21.3398 11.2656 21.3398C12.3136 21.3398 12.8386 21.3398 13.2516 21.1688M21.2196 13.2008C21.1066 13.4739 20.9408 13.722 20.7318 13.931C20.5228 14.14 20.2747 14.3058 20.0016 14.4188C19.5886 14.5898 19.0636 14.5898 18.0156 14.5898C16.9676 14.5898 16.4426 14.5898 16.0296 14.7608C15.7566 14.8739 15.5084 15.0397 15.2995 15.2487C15.0905 15.4577 14.9247 15.7058 14.8116 15.9788C14.6406 16.3918 14.6406 16.9168 14.6406 17.9648C14.6406 19.0128 14.6406 19.5378 14.4696 19.9508C14.3566 20.2239 14.1908 20.472 13.9818 20.681C13.7728 20.89 13.5247 21.0558 13.2516 21.1688M21.2196 13.2008C20.6817 15.0557 19.6922 16.7483 18.3396 18.127C16.9871 19.5057 15.3139 20.5274 13.4696 21.1008L13.2516 21.1688M16.8906 7.83984V6.93984C16.8906 5.67984 16.8906 5.04984 16.6456 4.56884C16.4301 4.14526 16.086 3.80079 15.6626 3.58484C15.1806 3.33984 14.5506 3.33984 13.2906 3.33984H6.99062C5.73062 3.33984 5.10063 3.33984 4.61963 3.58484C4.19589 3.80062 3.8514 4.1451 3.63562 4.56884C3.39062 5.04884 3.39062 5.67884 3.39062 6.93984V13.2398C3.39062 14.4998 3.39062 15.1298 3.63562 15.6108C3.85162 16.0348 4.19563 16.3788 4.61963 16.5948C5.09963 16.8398 5.73062 16.8398 6.99162 16.8398H7.89062" stroke="#DF0C45" stroke-width="1.5" stroke-linecap="round" stroke-linejoin="round"/>
</svg>
