<svg width="21" height="21" viewBox="0 0 21 21" fill="none" xmlns="http://www.w3.org/2000/svg">
<path d="M12.8756 8.12571L10.4008 10.6006M10.4008 10.6006L7.9259 13.0755M10.4008 10.6006L7.9259 8.12571M10.4008 10.6006L12.8756 13.0755M16.7647 4.23663C17.6005 5.07235 18.2634 6.0645 18.7157 7.15643C19.168 8.24836 19.4008 9.41869 19.4008 10.6006C19.4008 11.7825 19.168 12.9528 18.7157 14.0447C18.2634 15.1367 17.6005 16.1288 16.7647 16.9645C15.929 17.8003 14.9369 18.4632 13.8449 18.9155C12.753 19.3678 11.5827 19.6006 10.4008 19.6006C9.21888 19.6006 8.04855 19.3678 6.95662 18.9155C5.86469 18.4632 4.87254 17.8003 4.03681 16.9645C2.34899 15.2767 1.40077 12.9875 1.40077 10.6006C1.40077 8.21364 2.34899 5.92445 4.03681 4.23663C5.72464 2.5488 8.01382 1.60059 10.4008 1.60059C12.7877 1.60059 15.0769 2.5488 16.7647 4.23663Z" stroke="black" stroke-width="1.5" stroke-linecap="round" stroke-linejoin="round"/>
</svg>
