<svg width="19" height="19" viewBox="0 0 19 19" fill="none" xmlns="http://www.w3.org/2000/svg">
<path d="M2.67188 5.51367C2.67188 4.18767 2.67187 3.52467 3.08437 3.11367C3.49462 2.70117 4.15762 2.70117 5.48438 2.70117C6.81113 2.70117 7.47337 2.70117 7.88437 3.11367C8.29687 3.52467 8.29688 4.18767 8.29688 5.51367C8.29688 6.83967 8.29687 7.50267 7.88437 7.91367C7.47337 8.32617 6.81038 8.32617 5.48438 8.32617C4.15837 8.32617 3.49537 8.32617 3.08437 7.91367C2.67187 7.50342 2.67188 6.84042 2.67188 5.51367ZM2.67188 13.3939C2.67188 12.0679 2.67187 11.4049 3.08437 10.9939C3.49537 10.5814 4.15837 10.5814 5.48438 10.5814C6.81038 10.5814 7.47337 10.5814 7.88437 10.9939C8.29687 11.4049 8.29688 12.0679 8.29688 13.3939C8.29688 14.7199 8.29687 15.3829 7.88437 15.7939C7.47337 16.2064 6.81038 16.2064 5.48438 16.2064C4.15837 16.2064 3.49537 16.2064 3.08437 15.7939C2.67187 15.3837 2.67188 14.7199 2.67188 13.3939ZM10.5469 5.51367C10.5469 4.18767 10.5469 3.52467 10.9594 3.11367C11.3704 2.70117 12.0334 2.70117 13.3594 2.70117C14.6854 2.70117 15.3484 2.70117 15.7594 3.11367C16.1719 3.52467 16.1719 4.18767 16.1719 5.51367C16.1719 6.83967 16.1719 7.50267 15.7594 7.91367C15.3484 8.32617 14.6854 8.32617 13.3594 8.32617C12.0334 8.32617 11.3704 8.32617 10.9594 7.91367C10.5469 7.50267 10.5469 6.83967 10.5469 5.51367ZM10.5469 13.3939C10.5469 12.0679 10.5469 11.4049 10.9594 10.9939C11.3704 10.5814 12.0334 10.5814 13.3594 10.5814C14.6854 10.5814 15.3484 10.5814 15.7594 10.9939C16.1719 11.4049 16.1719 12.0679 16.1719 13.3939C16.1719 14.7199 16.1719 15.3829 15.7594 15.7939C15.3484 16.2064 14.6854 16.2064 13.3594 16.2064C12.0334 16.2064 11.3704 16.2064 10.9594 15.7939C10.5469 15.3829 10.5469 14.7199 10.5469 13.3939Z" stroke="white" stroke-width="1.25" stroke-linecap="round" stroke-linejoin="round"/>
</svg>
