<svg width="33" height="32" viewBox="0 0 33 32" fill="none" xmlns="http://www.w3.org/2000/svg">
<g clip-path="url(#clip0_1_57)">
<path d="M15.2594 12.53C15.3217 12.3837 15.3901 12.2385 15.4645 12.095C17.0536 9.03152 20.8252 7.83628 23.8887 9.4254C26.9522 11.0145 28.1474 14.7861 26.5583 17.8496C24.9692 20.9131 21.1976 22.1083 18.1341 20.5191C17.9906 20.4447 17.8511 20.3654 17.7158 20.2817" stroke="#7F0F91" stroke-width="1.5" stroke-linecap="round" stroke-linejoin="round"/>
<path d="M9.06193 23.394C5.99848 21.8049 4.80324 18.0333 6.39235 14.9698C7.98146 11.9064 11.7531 10.7112 14.8165 12.3003C17.88 13.8894 19.0752 17.661 17.4861 20.7244C15.897 23.7879 12.1254 24.9831 9.06193 23.394Z" fill="#F3A7FF" stroke="#7F0F91" stroke-width="1.5" stroke-linecap="round" stroke-linejoin="round"/>
<path d="M22.7957 25.1032C22.0622 26.5171 20.3215 27.0688 18.9076 26.3353L17.2009 25.45M17.2009 25.45L19.7929 24.6286M17.2009 25.45L18.0223 28.042" stroke="#7F0F91" stroke-width="1.5" stroke-linecap="round" stroke-linejoin="round"/>
<path d="M10.155 7.71629C10.8884 6.30239 12.6292 5.75075 14.0431 6.48418L15.7498 7.3695M15.7498 7.3695L13.1577 8.19091M15.7498 7.3695L14.9284 4.77745" stroke="#7F0F91" stroke-width="1.5" stroke-linecap="round" stroke-linejoin="round"/>
</g>
<defs>
<clipPath id="clip0_1_57">
<rect width="23.0722" height="23.0722" fill="white" transform="translate(11.5469 0.857422) rotate(27.4169)"/>
</clipPath>
</defs>
</svg>
