<svg width="25" height="25" viewBox="0 0 25 25" fill="none" xmlns="http://www.w3.org/2000/svg">
<path d="M12.7812 4.19238V8.19238" stroke="#004D9F" stroke-width="1.5" stroke-linecap="round" stroke-linejoin="round"/>
<path d="M4.78125 8.19238L7.28125 10.6924" stroke="#004D9F" stroke-width="1.5" stroke-linecap="round" stroke-linejoin="round"/>
<path d="M18.2812 10.6924L20.7812 8.19238" stroke="#004D9F" stroke-width="1.5" stroke-linecap="round" stroke-linejoin="round"/>
<path d="M3.78125 17.1924H6.78125" stroke="#004D9F" stroke-width="1.5" stroke-linecap="round" stroke-linejoin="round"/>
<path d="M12.7812 17.1924L13.7812 11.1924" stroke="#004D9F" stroke-width="1.5" stroke-linecap="round" stroke-linejoin="round"/>
<path d="M18.7812 17.1924H21.7812" stroke="#004D9F" stroke-width="1.5" stroke-linecap="round" stroke-linejoin="round"/>
<path d="M9.28125 20.1934H4.78125C3.52543 18.5219 2.78125 16.444 2.78125 14.1924C2.78125 8.66953 7.2584 4.19238 12.7812 4.19238C18.304 4.19238 22.7812 8.66953 22.7812 14.1924C22.7812 16.444 22.0371 18.5219 20.7812 20.1934L16.2812 20.1924" stroke="#004D9F" stroke-width="1.5" stroke-linecap="round" stroke-linejoin="round"/>
<path d="M12.7812 23.1924C14.4382 23.1924 15.7812 21.8493 15.7812 20.1924C15.7812 18.5355 14.4382 17.1924 12.7812 17.1924C11.1243 17.1924 9.78125 18.5355 9.78125 20.1924C9.78125 21.8493 11.1243 23.1924 12.7812 23.1924Z" stroke="#004D9F" stroke-width="1.5" stroke-linecap="round" stroke-linejoin="round"/>
</svg>
