<svg width="25" height="25" viewBox="0 0 25 25" fill="none" xmlns="http://www.w3.org/2000/svg">
<path d="M12.6289 15.1924C14.2858 15.1924 15.6289 13.8493 15.6289 12.1924C15.6289 10.5355 14.2858 9.19238 12.6289 9.19238C10.972 9.19238 9.62891 10.5355 9.62891 12.1924C9.62891 13.8493 10.972 15.1924 12.6289 15.1924Z" fill="#B1FFC2" stroke="#1A971E" stroke-width="1.5" stroke-linecap="round" stroke-linejoin="round"/>
<path d="M20.2513 10.5878L19.1536 7.93718L20.6289 6.19238L18.6289 4.19238L16.8936 5.67533L14.1867 4.56212L13.5642 2.19238H11.6099L10.978 4.59351L8.33332 5.70834L6.62891 4.19238L4.62891 6.19238L6.08228 7.98123L5.00141 10.6387L2.62891 11.1924V13.1924L5.03002 13.8479L6.14466 16.4921L4.62891 18.1924L6.62891 20.1924L8.42007 18.7327L11.0259 19.8047L11.6289 22.1924H13.6289L14.2334 19.8056L16.884 18.7079C17.3258 19.0237 18.6289 20.1924 18.6289 20.1924L20.6289 18.1924L19.1448 16.4418L20.2428 13.7904L22.6288 13.1696L22.6289 11.1924L20.2513 10.5878Z" stroke="#1A971E" stroke-width="1.5" stroke-linecap="round" stroke-linejoin="round"/>
</svg>
