<svg width="49" height="49" viewBox="0 0 49 49" fill="none" xmlns="http://www.w3.org/2000/svg">
<path d="M42.5195 24.7715C42.5195 27.1353 42.0539 29.4759 41.1494 31.6598C40.2448 33.8436 38.9189 35.828 37.2475 37.4994C35.576 39.1709 33.5917 40.4967 31.4078 41.4013C29.224 42.3059 26.8833 42.7715 24.5195 42.7715C22.1557 42.7715 19.8151 42.3059 17.6312 41.4013C15.4474 40.4967 13.4631 39.1709 11.7916 37.4994C10.1202 35.828 8.79428 33.8436 7.8897 31.6598C6.98511 29.4759 6.51953 27.1353 6.51953 24.7715C6.51953 19.9976 8.41595 15.4192 11.7916 12.0436C15.1673 8.66791 19.7456 6.77148 24.5195 6.77148C29.2934 6.77148 33.8718 8.66791 37.2475 12.0436C40.6231 15.4192 42.5195 19.9976 42.5195 24.7715Z" stroke="white" stroke-width="4" stroke-linecap="round" stroke-linejoin="round"/>
<path d="M27.0035 22.1915C28.3475 23.2855 29.0195 23.8335 29.0195 24.7715C29.0195 25.7095 28.3475 26.2575 27.0035 27.3515C26.6335 27.6555 26.2635 27.9415 25.9275 28.1775C25.6078 28.4001 25.281 28.6122 24.9475 28.8135C23.6075 29.6275 22.9355 30.0355 22.3355 29.5835C21.7355 29.1315 21.6795 28.1895 21.5695 26.2995C21.539 25.7907 21.5223 25.2812 21.5195 24.7715C21.5195 24.3015 21.5395 23.7775 21.5695 23.2435C21.6795 21.3535 21.7335 20.4095 22.3355 19.9595C22.9355 19.5075 23.6075 19.9155 24.9475 20.7295C25.2955 20.9415 25.6295 21.1575 25.9275 21.3655C26.2655 21.6015 26.6335 21.8875 27.0035 22.1895" stroke="white" stroke-width="2" stroke-linecap="round" stroke-linejoin="round"/>
</svg>
