<svg width="25" height="25" viewBox="0 0 25 25" fill="none" xmlns="http://www.w3.org/2000/svg">
<path d="M21.3906 4.02871V20.8287C21.3906 21.1601 21.122 21.4287 20.7906 21.4287H3.99062C3.65925 21.4287 3.39062 21.1601 3.39062 20.8287V4.02871C3.39062 3.69734 3.65925 3.42871 3.99062 3.42871H20.7906C21.122 3.42871 21.3906 3.69734 21.3906 4.02871Z" stroke="#DF0C45" stroke-width="1.5" stroke-linecap="round" stroke-linejoin="round"/>
<path d="M3.39062 16.4287L10.3906 13.4287L21.3906 18.4287" stroke="#DF0C45" stroke-width="1.5" stroke-linecap="round" stroke-linejoin="round"/>
<path d="M16.3906 10.4287C15.286 10.4287 14.3906 9.53328 14.3906 8.42871C14.3906 7.32414 15.286 6.42871 16.3906 6.42871C17.4952 6.42871 18.3906 7.32414 18.3906 8.42871C18.3906 9.53328 17.4952 10.4287 16.3906 10.4287Z" stroke="#DF0C45" stroke-width="1.5" stroke-linecap="round" stroke-linejoin="round"/>
</svg>
