<svg width="25" height="25" viewBox="0 0 25 25" fill="none" xmlns="http://www.w3.org/2000/svg">
<path d="M15.8994 12.8057H12.3994M12.3994 12.8057H8.89941M12.3994 12.8057V9.30566M12.3994 12.8057V16.3057M21.3994 12.8057C21.3994 13.9876 21.1666 15.1579 20.7143 16.2498C20.262 17.3417 19.5991 18.3339 18.7634 19.1696C17.9276 20.0054 16.9355 20.6683 15.8436 21.1206C14.7516 21.5729 13.5813 21.8057 12.3994 21.8057C11.2175 21.8057 10.0472 21.5729 8.95526 21.1206C7.86333 20.6683 6.87118 20.0054 6.03545 19.1696C5.19973 18.3339 4.53679 17.3417 4.0845 16.2498C3.63221 15.1579 3.39941 13.9876 3.39941 12.8057C3.39941 10.4187 4.34763 8.12953 6.03545 6.4417C7.72328 4.75388 10.0125 3.80566 12.3994 3.80566C14.7864 3.80566 17.0755 4.75388 18.7634 6.4417C20.4512 8.12953 21.3994 10.4187 21.3994 12.8057Z" stroke="black" stroke-width="1.5" stroke-linecap="round" stroke-linejoin="round"/>
</svg>
