<svg width="32" height="32" viewBox="0 0 32 32" fill="none" xmlns="http://www.w3.org/2000/svg">
<g clip-path="url(#clip0_1_66)">
<path d="M20.3657 16.1803L15.6431 20.8237L12.2626 19.0164L13.5008 12.5103C13.8539 10.655 15.0955 9.09143 16.8225 8.32715L20.509 6.6957C20.8509 6.54436 21.2441 6.75455 21.3082 7.12294L21.9991 11.0947C22.3228 12.9552 21.7122 14.8562 20.3657 16.1803Z" stroke="#7F0F91" stroke-width="1.5" stroke-linecap="round" stroke-linejoin="round"/>
<path d="M10.9071 21.5519C10.0035 23.2422 11.2419 24.9909 11.2419 24.9909C11.2419 24.9909 13.384 25.0494 14.2877 23.3592" stroke="#7F0F91" stroke-width="1.5" stroke-linecap="round" stroke-linejoin="round"/>
<path d="M13.0281 14.5356C8.94056 15.0671 8.82355 19.3513 8.82355 19.3513L12.2626 19.0165" fill="#F3A7FF"/>
<path d="M13.0281 14.5356C8.94056 15.0671 8.82355 19.3513 8.82355 19.3513L12.2626 19.0165" stroke="#7F0F91" stroke-width="1.5" stroke-linecap="round" stroke-linejoin="round"/>
<path d="M19.3085 17.8932C21.1369 21.5874 17.6393 24.0643 17.6393 24.0643L16.0076 21.0186" fill="#F3A7FF"/>
<path d="M19.3085 17.8932C21.1369 21.5874 17.6393 24.0643 17.6393 24.0643L16.0076 21.0186" stroke="#7F0F91" stroke-width="1.5" stroke-linecap="round" stroke-linejoin="round"/>
<path d="M16.6638 14.8493C15.7303 14.3502 15.3781 13.1889 15.8772 12.2553C16.3762 11.3218 17.5376 10.9696 18.4711 11.4687C19.4046 11.9678 19.7568 13.1291 19.2577 14.0626C18.7586 14.9962 17.5973 15.3483 16.6638 14.8493Z" fill="#F3A7FF" stroke="#7F0F91" stroke-width="1.5" stroke-linecap="round" stroke-linejoin="round"/>
</g>
<defs>
<clipPath id="clip0_1_66">
<rect width="23" height="23" fill="white" transform="translate(11.4922 0.130859) rotate(28.1296)"/>
</clipPath>
</defs>
</svg>
