<svg width="25" height="25" viewBox="0 0 25 25" fill="none" xmlns="http://www.w3.org/2000/svg">
<path d="M19.8872 16.6415C19.2929 18.0633 18.2911 19.2776 17.0082 20.1314C15.7252 20.9852 14.2183 21.4403 12.6772 21.4395C8.36419 21.4395 4.86719 17.9475 4.86719 13.6395C4.86719 9.33145 6.50719 7.56945 9.07219 3.43945C13.8782 5.53945 13.8782 11.8395 13.8782 11.8395C13.8782 11.8395 15.4572 8.80145 18.6852 7.33945C19.7192 10.3815 21.1152 13.7045 19.8872 16.6415Z" stroke="#7F0F91" stroke-width="1.5" stroke-linecap="round" stroke-linejoin="round"/>
<path d="M12.6172 18.4395C11.2911 18.4395 10.0193 17.9127 9.08165 16.975C8.14397 16.0373 7.61719 14.7655 7.61719 13.4395" stroke="#7F0F91" stroke-width="1.5" stroke-linecap="round" stroke-linejoin="round"/>
</svg>
