<svg width="24" height="24" viewBox="0 0 24 24" fill="none" xmlns="http://www.w3.org/2000/svg">
<path d="M12.1133 14.7461C13.7011 14.7461 14.9883 13.459 14.9883 11.8711C14.9883 10.2832 13.7011 8.99609 12.1133 8.99609C10.5254 8.99609 9.23828 10.2832 9.23828 11.8711C9.23828 13.459 10.5254 14.7461 12.1133 14.7461Z" fill="#F3A7FF" stroke="#7F0F91" stroke-width="1.5" stroke-linecap="round" stroke-linejoin="round"/>
<path d="M19.4181 10.3333L18.3661 7.79315L19.78 6.12105L17.8633 4.20439L16.2003 5.62555L13.6062 4.55872L13.0096 2.28772L11.1368 2.28772L10.5312 4.5888L7.99669 5.65718L6.3633 4.20439L4.44663 6.12105L5.83945 7.83537L4.80361 10.3821L2.52997 10.9127L2.52997 12.8294L4.83103 13.4576L5.89923 15.9916L4.44663 17.6211L6.3633 19.5377L8.07983 18.1388L10.5771 19.1662L11.155 21.4544L13.0716 21.4544L13.6509 19.167L16.1911 18.1151C16.6145 18.4177 17.8633 19.5377 17.8633 19.5377L19.78 17.6211L18.3577 15.9434L19.41 13.4025L21.6965 12.8075L21.6966 10.9127L19.4181 10.3333Z" stroke="#7F0F91" stroke-width="1.5" stroke-linecap="round" stroke-linejoin="round"/>
</svg>
