<svg width="24" height="25" viewBox="0 0 24 25" fill="none" xmlns="http://www.w3.org/2000/svg">
<path d="M12 15.9536C13.6569 15.9536 15 14.6105 15 12.9536C15 11.2967 13.6569 9.95361 12 9.95361C10.3431 9.95361 9 11.2967 9 12.9536C9 14.6105 10.3431 15.9536 12 15.9536Z" stroke="#7DC0AB" stroke-width="1.65" stroke-linecap="round" stroke-linejoin="round"/>
<path d="M19.6224 11.349L18.5247 8.69841L20 6.95361L18 4.95361L16.2647 6.43656L13.5578 5.32335L12.9353 2.95361H10.981L10.3491 5.35474L7.70441 6.46957L6 4.95361L4 6.95361L5.45337 8.74246L4.3725 11.3999L2 11.9536V13.9536L4.40111 14.6091L5.51575 17.2533L4 18.9536L6 20.9536L7.79116 19.4939L10.397 20.5659L11 22.9536H13L13.6045 20.5668L16.2551 19.4691C16.6969 19.7849 18 20.9536 18 20.9536L20 18.9536L18.5159 17.203L19.6139 14.5516L21.9999 13.9308L22 11.9536L19.6224 11.349Z" stroke="#7DC0AB" stroke-width="1.65" stroke-linecap="round" stroke-linejoin="round"/>
</svg>
