<svg width="19" height="19" viewBox="0 0 19 19" fill="none" xmlns="http://www.w3.org/2000/svg">
<path d="M3.20312 7.9502V14.7002C3.20312 15.5286 3.8747 16.2002 4.70312 16.2002H15.2031C16.0316 16.2002 16.7031 15.5286 16.7031 14.7002V7.9502" stroke="#FFFBF3"/>
<path d="M12.0781 16.2002V11.7002C12.0781 10.8717 11.4065 10.2002 10.5781 10.2002H9.07809C8.24967 10.2002 7.57809 10.8717 7.57809 11.7002V16.2002" stroke="#FFFBF3" stroke-miterlimit="16"/>
<path d="M17.3169 7.47333L16.0464 3.02657C15.9912 2.83339 15.8146 2.7002 15.6137 2.7002H12.5781L12.9346 6.97802C12.9463 7.11802 13.0224 7.24448 13.143 7.31641C13.435 7.49043 14.007 7.81294 14.4531 7.95019C15.215 8.18457 16.3287 8.10005 16.963 8.02205C17.2268 7.98965 17.3899 7.72887 17.3169 7.47333Z" stroke="#FFFBF3"/>
<path d="M11.4531 7.95019C11.8787 7.81923 12.419 7.51961 12.7213 7.34125C12.8652 7.25634 12.9444 7.09597 12.9305 6.92947L12.5781 2.7002H7.32812L6.97568 6.92947C6.96181 7.09597 7.04105 7.25634 7.18492 7.34125C7.48718 7.51961 8.0275 7.81923 8.45312 7.95019C9.57287 8.29474 10.3334 8.29474 11.4531 7.95019Z" stroke="#FFFBF3"/>
<path d="M3.85988 3.02657L2.58937 7.47333C2.51636 7.72887 2.67947 7.98965 2.94325 8.02205C3.57749 8.10005 4.6913 8.18457 5.45312 7.95019C5.8992 7.81294 6.47126 7.49043 6.76321 7.31641C6.88388 7.24448 6.95997 7.11802 6.97164 6.97802L7.32812 2.7002H4.29256C4.09164 2.7002 3.91507 2.83339 3.85988 3.02657Z" stroke="#FFFBF3"/>
</svg>
