<svg width="33" height="32" viewBox="0 0 33 32" fill="none" xmlns="http://www.w3.org/2000/svg">
<g clip-path="url(#clip0_1_204)">
<path d="M20.645 16.7888L15.9224 21.4322L12.5419 19.6249L13.7801 13.1188C14.1332 11.2635 15.3748 9.69995 17.1018 8.93567L20.7883 7.30422C21.1302 7.15288 21.5234 7.36307 21.5875 7.73146L22.2784 11.7032C22.6021 13.5638 21.9915 15.4647 20.645 16.7888Z" stroke="#573B03" stroke-width="1.5" stroke-linecap="round" stroke-linejoin="round"/>
<path d="M11.1864 22.1602C10.2828 23.8504 11.5212 25.5992 11.5212 25.5992C11.5212 25.5992 13.6633 25.6577 14.567 23.9674" stroke="#573B03" stroke-width="1.5" stroke-linecap="round" stroke-linejoin="round"/>
<path d="M13.3074 15.144C9.21984 15.6755 9.10283 19.9597 9.10283 19.9597L12.5419 19.6249" stroke="#573B03" stroke-width="1.5" stroke-linecap="round" stroke-linejoin="round"/>
<path d="M19.5878 18.5015C21.4162 22.1957 17.9186 24.6726 17.9186 24.6726L16.2869 21.6269" stroke="#573B03" stroke-width="1.5" stroke-linecap="round" stroke-linejoin="round"/>
<path d="M16.9431 15.4575C16.0096 14.9585 15.6574 13.7972 16.1565 12.8636C16.6555 11.9301 17.8168 11.5779 18.7504 12.077C19.6839 12.5761 20.0361 13.7374 19.537 14.6709C19.0379 15.6044 17.8766 15.9566 16.9431 15.4575Z" stroke="#573B03" stroke-width="1.5" stroke-linecap="round" stroke-linejoin="round"/>
</g>
<defs>
<clipPath id="clip0_1_204">
<rect width="23" height="23" fill="white" transform="translate(11.7715 0.739258) rotate(28.1296)"/>
</clipPath>
</defs>
</svg>
