<svg width="25" height="24" viewBox="0 0 25 24" fill="none" xmlns="http://www.w3.org/2000/svg">
<path d="M15.4277 11.9951C15.4277 11.3321 15.1643 10.6962 14.6955 10.2274C14.2267 9.75851 13.5908 9.49512 12.9277 9.49512C12.2647 9.49512 11.6288 9.75851 11.16 10.2274C10.6911 10.6962 10.4277 11.3321 10.4277 11.9951C10.4277 12.6582 10.6911 13.294 11.16 13.7629C11.6288 14.2317 12.2647 14.4951 12.9277 14.4951C13.5908 14.4951 14.2267 14.2317 14.6955 13.7629C15.1643 13.294 15.4277 12.6582 15.4277 11.9951Z" stroke="#573B03" stroke-width="1.5" stroke-linecap="round" stroke-linejoin="round"/>
<path d="M10.9277 4.88524C10.9277 6.32024 9.12573 7.41924 7.85373 6.67724C5.58273 5.45424 3.85773 8.82224 5.86373 10.1732C7.08773 10.8872 7.08873 13.0532 5.86373 13.7682C3.70073 15.0792 5.67473 18.4282 7.85373 17.2542C9.23273 16.4502 10.9287 17.7662 10.9287 19.2102C10.9287 21.6212 14.9087 21.5592 14.9087 19.2102C14.9087 17.7392 16.5787 16.4352 17.9827 17.2542C20.2227 18.4612 22.1507 14.9422 19.9727 13.7682C18.7467 13.0532 18.7477 10.8782 19.9727 10.1642C22.1357 8.85324 20.1627 5.50424 17.9827 6.67724C16.7397 7.40324 14.9097 6.31424 14.9087 4.88524C14.9087 2.32524 10.9287 2.40524 10.9287 4.88524" stroke="#573B03" stroke-width="1.5" stroke-linecap="round" stroke-linejoin="round"/>
</svg>
