<svg width="25" height="25" viewBox="0 0 25 25" fill="none" xmlns="http://www.w3.org/2000/svg">
<path d="M21.2196 13.1217C21.3906 12.7087 21.3906 12.1837 21.3906 11.1357C21.3906 10.0877 21.3906 9.56274 21.2196 9.14974C21.1066 8.87667 20.9408 8.62856 20.7318 8.41957C20.5228 8.21058 20.2747 8.04482 20.0016 7.93174C19.5886 7.76074 19.0636 7.76074 18.0156 7.76074H11.4906C10.2306 7.76074 9.60063 7.76074 9.11963 8.00574C8.69589 8.22152 8.3514 8.566 8.13562 8.98974C7.89062 9.46974 7.89062 10.0997 7.89062 11.3607V17.8857C7.89062 18.9337 7.89062 19.4587 8.06163 19.8717C8.29063 20.4227 8.72862 20.8617 9.27962 21.0897C9.69262 21.2607 10.2176 21.2607 11.2656 21.2607C12.3136 21.2607 12.8386 21.2607 13.2516 21.0897M21.2196 13.1217C21.1066 13.3948 20.9408 13.6429 20.7318 13.8519C20.5228 14.0609 20.2747 14.2267 20.0016 14.3397C19.5886 14.5107 19.0636 14.5107 18.0156 14.5107C16.9676 14.5107 16.4426 14.5107 16.0296 14.6817C15.7566 14.7948 15.5084 14.9606 15.2995 15.1696C15.0905 15.3786 14.9247 15.6267 14.8116 15.8997C14.6406 16.3127 14.6406 16.8377 14.6406 17.8857C14.6406 18.9337 14.6406 19.4587 14.4696 19.8717C14.3566 20.1448 14.1908 20.3929 13.9818 20.6019C13.7728 20.8109 13.5247 20.9767 13.2516 21.0897M21.2196 13.1217C20.6817 14.9766 19.6922 16.6692 18.3396 18.0479C16.9871 19.4266 15.3139 20.4483 13.4696 21.0217L13.2516 21.0897M16.8906 7.76074V6.86074C16.8906 5.60074 16.8906 4.97074 16.6456 4.48974C16.4301 4.06616 16.086 3.72169 15.6626 3.50574C15.1806 3.26074 14.5506 3.26074 13.2906 3.26074H6.99062C5.73062 3.26074 5.10063 3.26074 4.61963 3.50574C4.19589 3.72152 3.8514 4.066 3.63562 4.48974C3.39062 4.96974 3.39062 5.59974 3.39062 6.86074V13.1607C3.39062 14.4207 3.39062 15.0507 3.63562 15.5317C3.85162 15.9557 4.19563 16.2997 4.61963 16.5157C5.09963 16.7607 5.73062 16.7607 6.99162 16.7607H7.89062" stroke="#573B03" stroke-width="1.5" stroke-linecap="round" stroke-linejoin="round"/>
</svg>
